<?xml version="1.0" encoding="UTF-8"?>
<svg width="668px" height="700px" viewBox="0 0 668 700" version="1.1" xmlns="http://www.w3.org/2000/svg" xmlns:xlink="http://www.w3.org/1999/xlink">
    <!-- Generator: Sketch 51.2 (57519) - http://www.bohemiancoding.com/sketch -->
    <title>isometric zap-02</title>
    <desc>Created with Sketch.</desc>
    <defs>
        <linearGradient x1="49.3589309%" y1="92.7611193%" x2="50.2883115%" y2="30.5381329%" id="linearGradient-1">
            <stop stop-color="#000000" stop-opacity="0.8" offset="0%"></stop>
            <stop stop-color="#066051" offset="47%"></stop>
            <stop stop-color="#8FCCB9" offset="100%"></stop>
        </linearGradient>
        <linearGradient x1="46.2458684%" y1="95.0859837%" x2="77.1678322%" y2="11.7734053%" id="linearGradient-2">
            <stop stop-color="#EEEEEE" offset="0%"></stop>
            <stop stop-color="#E4E4E4" offset="19.8294502%"></stop>
            <stop stop-color="#D8D8D8" offset="100%"></stop>
        </linearGradient>
        <path d="M714.256605,911.145562 L516.82625,1026.78567 C513.070143,1028.99811 510.921217,1031.82211 510.921217,1034.55617 C510.921217,1037.29023 513.124318,1040.11423 516.898483,1042.27271 L683.395133,1137.6052 C689.552981,1141.20265 692.947923,1146.0772 692.965981,1151.50935 C692.98404,1156.9415 689.625213,1161.92398 683.485424,1165.48545 L352.514643,1358.30891 C343.341075,1363.70509 335.521872,1377.1056 335.467697,1387.7001 L334.023041,1617.0197 C334.023041,1624.0887 331.350427,1629.48488 326.601119,1632.20095 C324.546749,1633.39486 322.207704,1634.01616 319.829292,1633.99968 C316.247092,1633.89618 312.754473,1632.86057 309.698639,1630.99581 L20.4784281,1465.42306 C9.10175897,1458.92965 -0.07180916,1443.01093 0.000423659896,1429.95217 L1.44508006,1200.12892 C1.44508006,1187.05218 10.9256377,1171.3493 22.410656,1164.98181 L72.0526615,1137.64117 L75.5559533,1143.93671 L25.8958896,1171.24138 C16.6139722,1176.34976 8.72253666,1189.5704 8.66836205,1200.12892 L7.22370565,1429.95217 C7.22370565,1440.5107 14.8803846,1453.89322 24.0720109,1459.1455 L313.346396,1624.62832 C317.120561,1626.78679 320.569678,1627.25446 323.061711,1625.86944 C325.553743,1624.48442 326.835875,1621.22872 326.853934,1616.87581 L328.29859,1387.5562 C328.29859,1374.51543 337.634682,1358.56073 348.92106,1351.99538 L679.837666,1159.33381 C683.593773,1157.13936 685.760758,1154.31536 685.742699,1151.59929 C685.724641,1148.88321 683.557657,1146.05921 679.783492,1143.90074 L513.286842,1048.56825 C507.128994,1044.9708 503.734051,1040.09625 503.697935,1034.64611 C503.661819,1029.19597 507.038703,1024.23148 513.160434,1020.63403 L710.590789,905.011906 C711.785137,904.92832 712.968402,905.28703 713.913499,906.019192 C715.221428,907.436058 715.364138,909.568299 714.256605,911.145562 Z" id="path-3"></path>
        <filter x="-6.3%" y="-6.2%" width="112.6%" height="112.3%" filterUnits="objectBoundingBox" id="filter-4">
            <feMorphology radius="5" operator="dilate" in="SourceAlpha" result="shadowSpreadOuter1"></feMorphology>
            <feOffset dx="0" dy="0" in="shadowSpreadOuter1" result="shadowOffsetOuter1"></feOffset>
            <feGaussianBlur stdDeviation="10" in="shadowOffsetOuter1" result="shadowBlurOuter1"></feGaussianBlur>
            <feColorMatrix values="0 0 0 0 1   0 0 0 0 1   0 0 0 0 1  0 0 0 0.3 0" type="matrix" in="shadowBlurOuter1"></feColorMatrix>
        </filter>
        <path d="M980.841993,472.328785 L863.952171,405.786259 L819.814148,431.187474 L935.946299,497.815183 L980.841993,472.328785 Z M985.286537,474.858956 L940.659125,500.51904 L1007.12649,538.65291 L1051.86934,512.762921 L985.286537,474.858956 Z M986.38044,469.184718 L1184,357 L1184,360.601732 L990.789843,471.694639 L1057.35835,509.586762 L1259.94628,392.36133 C1260.78274,391.879248 1261.81311,391.879577 1262.64926,392.362196 C1263.48541,392.844814 1264.00031,393.736399 1264,394.7011 C1263.99969,395.6658 1263.48422,396.557056 1262.64776,397.039138 L1062.80432,512.686718 L1168.78755,573.014493 C1174.65746,576.366087 1177.92654,581.033092 1177.99879,586.186618 C1178.07103,591.340145 1174.91031,596.097246 1169.13071,599.592995 L1116.19559,628.803442 L1151.13061,648.795164 C1157.00183,652.159588 1160.24361,656.819404 1160.27963,661.92901 C1160.31565,667.038616 1157.1279,671.752407 1151.27469,675.170805 L903.44079,821.298329 C903.008553,821.550211 902.468257,822 902,822 L902,814.803372 L1148.5552,670.52898 C1152.64344,668.11811 1154.89467,665.131509 1154.87666,661.964993 C1154.85865,658.798477 1152.5714,655.84786 1148.44714,653.490964 L1110.65196,631.862505 L1035.39723,673.389269 L1053.46892,683.809199 C1059.32334,687.177805 1062.53788,691.807387 1062.51992,696.887317 C1062.50196,701.967247 1059.2515,706.596829 1053.39709,709.929408 L902.008355,796 L902.008355,788.794425 L1050.7213,705.155714 C1054.83375,702.813902 1057.11446,699.769547 1057.11446,696.797247 C1057.11446,693.824948 1054.86967,690.780592 1050.77517,688.420767 L1029.93399,676.403976 L1005.65588,689.801025 C1011.4213,693.121837 1014.57352,697.661332 1014.57352,702.622165 C1014.57352,707.64658 1011.28579,712.238788 1005.36065,715.534372 L902,773.095411 L902,766 L1002.72324,710.816104 C1006.86,708.510996 1009.13612,705.611602 1009.15418,702.622165 C1009.17225,699.632727 1006.89613,696.697316 1002.75937,694.374199 L1000.09029,692.872207 L902,747 L902,741.594203 L995.01975,690.018821 L971.682689,676.88617 L902,716 L902,709.825675 L966.159193,673.777889 L818.140687,590.482251 C812.233611,587.150649 808.98201,582.558442 809.000075,577.534026 C809.018139,572.50961 812.305869,567.935411 818.231009,564.639827 L827.23361,559.529228 L728.979836,502.877213 C723.143378,499.508606 719.946795,494.897038 720.00067,489.853136 C720.054545,484.809233 723.34092,480.251707 729.249211,477.009199 L808.82667,431.118827 L789.980757,420.30649 C778.834168,413.952155 769.844983,398.399337 769.844983,385.618664 L769,31 L774.393511,31 L775.238494,385.618664 C775.274451,396.473235 783.238869,410.207958 792.659534,415.608243 L814.246638,427.993264 L858.317586,402.578628 L842.095547,393.343816 C830.969813,387.019034 821.885002,371.468357 821.848879,358.674638 L821,0 L826.418377,0 L827.267256,358.584541 C827.267256,369.396135 835.322576,383.198937 844.786674,388.586715 L863.80661,399.413243 L1072.6125,279 L1078,282.602787 L869.447128,402.623939 L986.38044,469.184718 Z M1000.57652,686.937833 L1024.85588,673.475994 L1001.62308,660.080226 L977.219398,673.77834 L1000.57652,686.937833 Z M971.696535,670.666738 L996.152696,656.926065 L832.624287,562.637432 L820.904548,569.376104 C816.713595,571.663203 814.509732,574.508571 814.509732,577.48 C814.509732,580.451429 816.767789,583.38684 820.904548,585.709957 L971.696535,670.666738 Z M935.23118,503.640026 L837.977617,559.559348 L1001.5678,653.883597 L1076.02748,612.048487 L1000.45999,568.804648 C994.58877,565.440225 991.455052,560.7984 991.346993,555.706786 C991.238934,550.615172 994.552751,545.955356 1000.35193,542.572941 L1001.71576,541.783773 L935.23118,503.640026 Z M930.483618,500.91624 L814.388613,434.309843 L731.83521,481.81892 C727.704794,484.088676 725.424086,486.98892 725.388169,489.979233 C725.352253,492.969547 727.579086,495.905819 731.673585,498.265645 L832.621114,556.470849 L930.483618,500.91624 Z M1030.30637,670.453934 L1105.36517,628.837113 L1081.55653,615.212508 L1007.04073,657.039227 L1030.30637,670.453934 Z M1012.55341,541.76646 L1087.81043,584.943155 C1093.6534,588.291331 1096.8895,593.061582 1096.99737,598.191852 C1097.10524,603.322122 1093.88711,608.056371 1088.11606,611.530554 L1087.05371,612.126867 L1110.89581,625.770616 L1166.33122,595.034106 C1170.395,592.565459 1172.6346,589.484155 1172.58041,586.330773 C1172.52623,583.177391 1170.23245,580.132126 1166.09642,577.789614 L1057.31529,515.863168 L1012.55341,541.76646 Z M1007.14292,544.897461 L1003.10744,547.232757 C999.00119,549.607644 996.731946,552.630228 996.749955,555.688794 C996.767965,558.747361 999.0192,561.751953 1003.14346,564.108849 L1081.52207,608.96136 L1085.31143,606.832307 C1089.37454,604.384178 1091.60386,601.306016 1091.56791,598.173851 C1091.53195,595.041686 1089.2487,591.999526 1085.13165,589.641402 L1007.14292,544.897461 Z" id="path-5"></path>
        <filter x="-8.3%" y="-5.5%" width="116.5%" height="110.9%" filterUnits="objectBoundingBox" id="filter-6">
            <feMorphology radius="5" operator="dilate" in="SourceAlpha" result="shadowSpreadOuter1"></feMorphology>
            <feOffset dx="0" dy="0" in="shadowSpreadOuter1" result="shadowOffsetOuter1"></feOffset>
            <feGaussianBlur stdDeviation="10" in="shadowOffsetOuter1" result="shadowBlurOuter1"></feGaussianBlur>
            <feColorMatrix values="0 0 0 0 1   0 0 0 0 1   0 0 0 0 1  0 0 0 0.3 0" type="matrix" in="shadowBlurOuter1"></feColorMatrix>
        </filter>
        <circle id="path-7" cx="12.4484923" cy="12.4484923" r="12.4484923"></circle>
        <filter x="-92.4%" y="-88.4%" width="284.8%" height="284.8%" filterUnits="objectBoundingBox" id="filter-8">
            <feOffset dx="0" dy="1" in="SourceAlpha" result="shadowOffsetOuter1"></feOffset>
            <feGaussianBlur stdDeviation="7.5" in="shadowOffsetOuter1" result="shadowBlurOuter1"></feGaussianBlur>
            <feColorMatrix values="0 0 0 0 0.790751403   0 0 0 0 0.828948767   0 0 0 0 0.714356674  0 0 0 1 0" type="matrix" in="shadowBlurOuter1"></feColorMatrix>
        </filter>
        <circle id="path-9" cx="12.4484923" cy="12.4484923" r="6.9606874"></circle>
        <filter x="-57.5%" y="-50.3%" width="214.9%" height="214.9%" filterUnits="objectBoundingBox" id="filter-10">
            <feOffset dx="0" dy="1" in="SourceAlpha" result="shadowOffsetOuter1"></feOffset>
            <feGaussianBlur stdDeviation="2.5" in="shadowOffsetOuter1" result="shadowBlurOuter1"></feGaussianBlur>
            <feColorMatrix values="0 0 0 0 1   0 0 0 0 1   0 0 0 0 1  0 0 0 1 0" type="matrix" in="shadowBlurOuter1"></feColorMatrix>
        </filter>
    </defs>
    <g id="Product-July-2018" stroke="none" stroke-width="1" fill="none" fill-rule="evenodd" opacity="0.8">
        <g id="dark-no-video-proxima-muted" transform="translate(-772.000000, -120.000000)">
            <g id="Hero-img-overlay" transform="translate(0.000000, 120.000000)">
                <g id="Group-14">
                    <g id="isometric-zap-02" transform="translate(1347.000000, 229.000000) scale(-1, 1) translate(-1347.000000, -229.000000) translate(715.000000, -588.000000)">
                        <g id="Group-2" transform="translate(638.000000, 622.000000)" fill-rule="nonzero">
                            <path d="M143.649956,2.60130009 C136.81906,-0.867100031 128.756953,-0.867100031 121.926057,2.60130009 L10.8709043,66.5766944 C4.46115752,70.7659271 0.422718701,77.7800185 0,85.4576331 L0,249.404715 C0.40031934,257.108248 4.44142407,264.153759 10.8709043,268.357718 L121.908147,332.405177 C128.741085,335.864941 136.799109,335.864941 143.632047,332.405177 L253.164914,268.357718 C259.55274,264.119149 263.570859,257.090555 264,249.404715 L264,85.4576331 C263.559928,77.7943438 259.541713,70.7923075 253.164914,66.5766944 L143.649956,2.60130009 Z" id="Shape" fill="url(#linearGradient-1)"></path>
                            <path d="M40.4982655,210.546614 C34.5005782,214.049924 34.5005782,219.669819 40.4982655,223.319101 L124.681374,272.365455 C131.530546,275.878182 139.614222,275.878182 146.463394,272.365455 L229.515202,223.319101 C235.494933,219.779298 235.494933,214.013432 229.515202,210.546614 L146.55318,161.627985 C139.701961,158.124005 131.622378,158.124005 124.77116,161.627985 L40.4982655,210.546614 Z" id="Shape" fill="#066051"></path>
                            <path d="M38.4982655,162.692252 C32.5005782,166.121545 32.5005782,171.669458 38.4982655,175.26034 L122.77116,223.414071 C129.622378,226.861976 137.701961,226.861976 144.55318,223.414071 L227.515202,175.278294 C233.494933,171.813093 233.494933,166.139499 227.515202,162.710206 L144.55318,114.592384 C137.704008,111.135872 129.620331,111.135872 122.77116,114.592384 L38.4982655,162.692252 Z" id="Shape" fill="#04A996"></path>
                            <path d="M40.4982655,115.568504 C34.5005782,119.053371 34.5005782,124.78242 40.4982655,128.340269 L124.681374,177.365604 C131.530546,180.878132 139.614222,180.878132 146.463394,177.365604 L229.515202,128.322024 C235.494933,124.800666 235.494933,119.035126 229.515202,115.550258 L146.55318,66.634396 C139.704008,63.121868 131.620331,63.121868 124.77116,66.634396 L40.4982655,115.568504 Z" id="Shape" fill="#5ACCB9"></path>
                        </g>
                        <g id="Shape" opacity="0.15" fill-rule="nonzero">
                            <use fill="black" fill-opacity="1" filter="url(#filter-4)" xlink:href="#path-3"></use>
                            <use fill="url(#linearGradient-2)" xlink:href="#path-3"></use>
                        </g>
                        <g id="Combined-Shape" opacity="0.15" fill-rule="nonzero">
                            <use fill="black" fill-opacity="1" filter="url(#filter-6)" xlink:href="#path-5"></use>
                            <use fill="url(#linearGradient-2)" xlink:href="#path-5"></use>
                        </g>
                        <g id="Group-8" transform="translate(590.000000, 959.000000)">
                            <g id="Oval-3">
                                <use fill="black" fill-opacity="1" filter="url(#filter-8)" xlink:href="#path-7"></use>
                                <use fill="#F7F7F7" fill-rule="evenodd" xlink:href="#path-7"></use>
                            </g>
                            <g id="Oval-3">
                                <use fill="black" fill-opacity="1" filter="url(#filter-10)" xlink:href="#path-9"></use>
                                <use fill="#00AB98" fill-rule="evenodd" xlink:href="#path-9"></use>
                            </g>
                        </g>
                    </g>
                </g>
            </g>
        </g>
    </g>
</svg>