<?xml version="1.0" standalone="no"?>
<!DOCTYPE svg PUBLIC "-//W3C//DTD SVG 20010904//EN"
 "http://www.w3.org/TR/2001/REC-SVG-20010904/DTD/svg10.dtd">
<svg version="1.0" xmlns="http://www.w3.org/2000/svg"
 width="300.000000pt" height="270.000000pt" viewBox="0 0 300.000000 270.000000"
 preserveAspectRatio="xMidYMid meet">
<metadata>
Created by potrace 1.16, written by Peter Selinger 2001-2019
</metadata>
<g transform="translate(0.000000,270.000000) scale(0.100000,-0.100000)"
fill="#000000" stroke="none">
<path d="M403 2680 c-147 -52 -272 -185 -302 -322 -6 -25 -11 -390 -12 -893
l-2 -850 25 -63 c14 -34 22 -60 18 -57 -10 6 -31 -104 -26 -140 11 -81 51
-131 130 -165 120 -51 238 -62 776 -75 118 -3 305 -8 415 -11 253 -6 893 -6
920 0 60 13 85 22 140 48 33 16 76 41 95 56 48 37 136 132 152 162 7 14 16 27
19 30 3 3 23 41 43 85 21 44 48 103 61 130 47 100 63 160 61 221 -5 137 -76
197 -249 211 -62 5 -81 3 -88 -8 -5 -8 -9 211 -9 536 l0 550 121 100 c67 55
126 103 131 106 10 7 -151 339 -165 339 -5 0 -53 -38 -107 -85 -61 -52 -101
-81 -106 -74 -12 20 -125 88 -183 110 -53 20 -101 23 -806 50 -894 34 -980 34
-1052 9z m1007 -55 c399 -14 750 -30 780 -35 65 -12 141 -48 190 -89 l35 -29
-60 -55 c-72 -65 -614 -527 -618 -527 -2 0 -75 81 -163 180 -87 99 -162 180
-165 180 -12 0 -191 -229 -187 -239 10 -30 473 -601 484 -597 7 3 173 139 371
303 197 164 377 313 401 332 l42 33 -2 -794 -3 -793 -26 -56 c-15 -31 -43 -75
-64 -97 -36 -41 -143 -103 -174 -101 -11 0 -8 4 8 12 l24 11 -6 151 c-6 146
-22 270 -52 389 -14 54 -14 60 2 72 10 7 -5 5 -35 -6 -29 -11 -72 -20 -96 -20
l-43 0 -8 73 c-24 254 -169 397 -404 399 -103 1 -179 -19 -247 -64 -58 -40
-118 -122 -141 -195 -12 -40 -19 -50 -25 -38 -5 8 -20 15 -33 15 -13 0 -27 5
-30 10 -9 15 -38 12 -29 -2 4 -7 -10 4 -32 26 -52 52 -130 87 -299 135 -76 22
-151 49 -165 59 -50 38 -52 107 -3 139 35 23 135 23 180 0 32 -17 93 -83 93
-102 0 -5 4 -16 9 -24 7 -11 30 -6 127 29 66 24 121 45 123 47 14 11 -96 163
-141 194 -29 19 -28 17 8 -17 40 -38 114 -143 114 -162 0 -10 -208 -88 -214
-81 -1 2 -13 21 -25 41 -32 54 -73 84 -131 98 -108 26 -190 -14 -190 -92 0
-76 22 -93 188 -139 247 -69 309 -106 369 -222 24 -45 28 -64 28 -137 0 -73
-4 -93 -28 -141 -66 -135 -216 -219 -392 -219 -147 0 -279 53 -375 151 -63 64
-126 167 -107 174 34 12 220 55 223 52 2 -2 21 -31 43 -65 46 -71 74 -88 169
-102 126 -20 202 23 202 114 0 76 -34 98 -235 157 -60 17 -132 41 -161 54
-121 53 -177 144 -178 290 -1 128 50 214 164 279 25 14 40 26 33 26 -6 0 -40
-19 -75 -42 -44 -30 -72 -59 -94 -96 -35 -58 -60 -164 -49 -211 6 -30 6 -31
-20 -21 -14 5 -39 10 -55 10 -26 0 -29 3 -34 48 -3 26 -7 254 -8 507 -2 253
-4 450 -6 438 -2 -15 -10 -23 -22 -23 -15 0 -20 -9 -23 -47 -3 -27 -4 6 -3 72
1 109 3 125 28 176 32 64 123 156 186 188 74 38 140 50 237 45 50 -2 416 -16
815 -29z m1305 -135 c36 -71 65 -134 65 -138 0 -9 -86 -82 -390 -331 -96 -79
-156 -124 -132 -99 l42 44 -24 23 c-14 13 -31 21 -38 18 -7 -3 -125 -93 -263
-201 -137 -108 -255 -195 -262 -193 -11 2 -446 394 -450 406 -1 3 31 48 71 99
l74 93 162 -181 c101 -113 166 -178 173 -173 11 6 385 322 742 626 88 75 161
137 162 137 2 0 32 -58 68 -130z m-913 -1212 c74 -34 141 -97 172 -162 33 -66
56 -158 56 -218 l0 -48 -264 0 c-146 0 -267 -4 -270 -9 -11 -17 8 -114 28
-144 70 -104 208 -102 263 3 13 24 25 46 28 48 2 2 50 -1 106 -8 l101 -12 -6
-32 c-10 -48 -76 -138 -130 -174 -73 -48 -140 -64 -254 -60 -81 3 -107 8 -157
31 -144 67 -225 211 -225 402 0 211 100 363 267 405 21 5 81 8 134 6 77 -2
106 -8 151 -28z"/>
<path d="M1590 1153 c-47 -18 -79 -68 -95 -150 l-7 -33 156 0 156 0 0 28 c0
49 -19 98 -50 127 -25 24 -40 29 -87 32 -32 1 -65 0 -73 -4z m137 -30 c26 -17
53 -71 53 -107 l0 -26 -135 0 c-74 0 -135 1 -135 3 0 2 7 26 15 55 22 73 74
106 150 94 17 -3 40 -12 52 -19z"/>
</g>
</svg>
